<svg xmlns="http://www.w3.org/2000/svg" xmlns:xlink="http://www.w3.org/1999/xlink" viewBox="0 0 56.03 56.02"><defs><style>.cls-1{isolation:isolate;}.cls-2{fill:#ce5c6c;}.cls-3{fill:#7f3f4b;}.cls-4{mix-blend-mode:multiply;fill:url(#linear-gradient);}</style><linearGradient id="linear-gradient" x1="33.31" y1="29.87" x2="29.43" y2="52.55" gradientUnits="userSpaceOnUse"><stop offset="0" stop-color="#1c1b22"/><stop offset="0.99" stop-color="#1c1b22" stop-opacity="0"/></linearGradient></defs><g class="cls-1"><g id="Layer_2" data-name="Layer 2"><g id="Layer_1-2" data-name="Layer 1"><path class="cls-2" d="M27.06,0A28,28,0,0,0,2.43,39.42c.5-5.52,2.26-11.13,5.09-13.8,7.77.12,9.38-3.36,9.38-3.36-6,2.84-10.28,1-10.28,1v0c.06-.52,1.25-8.38,11.54-9.22a43.25,43.25,0,0,1,4.63.1,9.91,9.91,0,0,0-2.46-1,9.66,9.66,0,0,1,3.28-1.72A10.45,10.45,0,0,1,26.67,11h1.62a14,14,0,0,1,8.34,2.74c3.26,2.41,8.51,5.55,13.86,5.64a1,1,0,0,1,1,1c-.79,8-11.48,8.31-16.83,8a13,13,0,0,0-10.26,3.94c-3.05,3.26-6.59,11.72,1.38,18a14.51,14.51,0,0,0,10,3.08A18.68,18.68,0,0,0,48.12,47.5,28,28,0,0,0,27.06,0Z"/><path class="cls-3" d="M52.15,42.22c-.47.68-6.47,8.89-18.45,6.6-15.21-2.91-10.5-14.89-10.47-15-2.6,3.89-4.38,11,2.56,16.43a14.51,14.51,0,0,0,10,3.08A18.66,18.66,0,0,0,48.12,47.5,28.05,28.05,0,0,0,52.15,42.22Z"/><path class="cls-4" d="M21.46,37.6a11.49,11.49,0,0,0-.23,6.07c0,.14.07.28.12.42s.09.3.14.45.16.44.25.66.26.58.41.87.17.32.27.48.33.53.52.8.36.49.56.73l.5.57a16,16,0,0,0,1.79,1.63,16.45,16.45,0,0,0,1.64,1.12l.56.31a11.74,11.74,0,0,0,1.4.65c.29.12.57.22.86.31A9.87,9.87,0,0,0,31.4,53a5.41,5.41,0,0,0,.58.12,16.38,16.38,0,0,0,6.82-.19,8.67,8.67,0,0,0,.84-.22l.42-.12c.27-.09.54-.18.82-.29h0c.41-.15.81-.31,1.2-.49s1.05-.51,1.56-.79c.25-.15.5-.3.74-.46.49-.31,1-.64,1.44-1,.23-.18.46-.36.68-.55h0c.33-.28.66-.57,1-.88h0c.11-.09.22-.2.32-.3a28,28,0,0,1-34,4.32s-3.22-16.91,8-24.25,24.12,1.76,29.41-6c-1.91,6.5-11.55,6.8-16.54,6.5A12.39,12.39,0,0,0,22.55,35,13.81,13.81,0,0,0,21.46,37.6Z"/></g></g></g></svg>