<svg xmlns="http://www.w3.org/2000/svg" viewBox="0 0 48.31 54.01"><defs><style>.cls-1{fill:#97509f;}.cls-2{fill:#85a8d8;}.cls-3{fill:#f280a3;}</style></defs><g id="Layer_2" data-name="Layer 2"><g id="Layer_1-2" data-name="Layer 1"><path class="cls-1" d="M40.54,29.17,48,24.89a.56.56,0,0,0,.31-.54V15.76a.62.62,0,0,0-.92-.54L39.93,19.5a.56.56,0,0,0-.31.54v8.59A.62.62,0,0,0,40.54,29.17Z"/><path class="cls-1" d="M33.1,39.93l-7.43,4.28a.57.57,0,0,0-.31.55v8.59a.62.62,0,0,0,.92.54l7.43-4.28a.56.56,0,0,0,.31-.54V40.48A.62.62,0,0,0,33.1,39.93Z"/><path class="cls-1" d="M47.36,31.75l-4.82,2.79-8.66-4.93V24a.61.61,0,0,0-.91-.54l-4.89,2.82h0l-2.51,1.46a.56.56,0,0,0-.31.54v3h0v5.6a.62.62,0,0,0,.92.54l4.89-2.82,8.58,4.89v5.67a.62.62,0,0,0,.92.55L48,41.43a.58.58,0,0,0,.3-.54V32.3A.65.65,0,0,0,47.36,31.75Z"/><path class="cls-2" d="M22.61,44.25,15.18,40a.62.62,0,0,0-.92.54V49.1a.63.63,0,0,0,.3.54L22,53.92a.62.62,0,0,0,.92-.54V44.79A.56.56,0,0,0,22.61,44.25Z"/><path class="cls-2" d="M.31,24.89l7.43,4.28a.62.62,0,0,0,.92-.54V20a.63.63,0,0,0-.31-.54L.92,15.25A.62.62,0,0,0,0,15.8v8.59A.62.62,0,0,0,.31,24.89Z"/><path class="cls-2" d="M17,34.6l4.82,2.79a.62.62,0,0,0,.92-.54V31.18h0V28.29a.65.65,0,0,0-.3-.54l-7.41-4.28a.61.61,0,0,0-.91.54v5.67L5.87,34.6.92,31.75A.62.62,0,0,0,0,32.3v8.59a.65.65,0,0,0,.31.54l7.43,4.28a.62.62,0,0,0,.92-.55V39.63Z"/><path class="cls-3" d="M31.74,20.82,26.89,18V8.33l5-2.89a.6.6,0,0,0,0-1.05L24.44.08a.6.6,0,0,0-.61,0L16.4,4.39a.6.6,0,0,0,0,1.05l4.75,2.75V18L16.3,20.85a.61.61,0,0,0,0,1.06l7.43,4.27a.6.6,0,0,0,.61,0l7.44-4.27A.65.65,0,0,0,31.74,20.82Z"/><path class="cls-3" d="M46.14,12.6,38.7,8.33a.6.6,0,0,0-.61,0L30.66,12.6a.61.61,0,0,0,0,1.06L38.09,18a.66.66,0,0,0,.61,0l7.44-4.28A.64.64,0,0,0,46.14,12.6Z"/><path class="cls-3" d="M17.62,12.6,10.19,8.33a.62.62,0,0,0-.62,0L2.14,12.6a.61.61,0,0,0,0,1.06L9.57,18a.68.68,0,0,0,.62,0l7.43-4.28A.64.64,0,0,0,17.62,12.6Z"/></g></g></svg>