<svg xmlns="http://www.w3.org/2000/svg" viewBox="0 0 184.03 54.01"><defs><style>.cls-1{fill:#97509f;}.cls-2{fill:#85a8d8;}.cls-3{fill:#f280a3;}.cls-4{fill:#fff;}</style></defs><g id="Layer_2" data-name="Layer 2"><g id="Layer_1-2" data-name="Layer 1"><path class="cls-1" d="M40.54,29.17,48,24.89a.56.56,0,0,0,.31-.54V15.76a.62.62,0,0,0-.92-.54L39.93,19.5a.56.56,0,0,0-.31.54v8.59A.62.62,0,0,0,40.54,29.17Z"/><path class="cls-1" d="M33.1,39.93l-7.43,4.28a.57.57,0,0,0-.31.55v8.59a.62.62,0,0,0,.92.54l7.43-4.28a.56.56,0,0,0,.31-.54V40.48A.62.62,0,0,0,33.1,39.93Z"/><path class="cls-1" d="M47.36,31.75l-4.82,2.79-8.66-4.93V24a.61.61,0,0,0-.91-.54l-4.89,2.82h0l-2.51,1.46a.56.56,0,0,0-.31.54v3h0v5.6a.62.62,0,0,0,.92.54l4.89-2.82,8.58,4.89v5.67a.62.62,0,0,0,.92.55L48,41.43a.58.58,0,0,0,.3-.54V32.3A.65.65,0,0,0,47.36,31.75Z"/><path class="cls-2" d="M22.61,44.25,15.18,40a.62.62,0,0,0-.92.54V49.1a.63.63,0,0,0,.3.54L22,53.92a.62.62,0,0,0,.92-.54V44.79A.56.56,0,0,0,22.61,44.25Z"/><path class="cls-2" d="M.31,24.89l7.43,4.28a.62.62,0,0,0,.92-.54V20a.63.63,0,0,0-.31-.54L.92,15.25A.62.62,0,0,0,0,15.8v8.59A.62.62,0,0,0,.31,24.89Z"/><path class="cls-2" d="M17,34.6l4.82,2.79a.62.62,0,0,0,.92-.54V31.18h0V28.29a.65.65,0,0,0-.3-.54l-7.41-4.28a.61.61,0,0,0-.91.54v5.67L5.87,34.6.92,31.75A.62.62,0,0,0,0,32.3v8.59a.65.65,0,0,0,.31.54l7.43,4.28a.62.62,0,0,0,.92-.55V39.63Z"/><path class="cls-3" d="M31.74,20.82,26.89,18V8.33l5-2.89a.6.6,0,0,0,0-1.05L24.44.08a.6.6,0,0,0-.61,0L16.4,4.39a.6.6,0,0,0,0,1.05l4.75,2.75V18L16.3,20.85a.61.61,0,0,0,0,1.06l7.43,4.27a.6.6,0,0,0,.61,0l7.44-4.27A.65.65,0,0,0,31.74,20.82Z"/><path class="cls-3" d="M46.14,12.6,38.7,8.33a.6.6,0,0,0-.61,0L30.66,12.6a.61.61,0,0,0,0,1.06L38.09,18a.66.66,0,0,0,.61,0l7.44-4.28A.64.64,0,0,0,46.14,12.6Z"/><path class="cls-3" d="M17.62,12.6,10.19,8.33a.62.62,0,0,0-.62,0L2.14,12.6a.61.61,0,0,0,0,1.06L9.57,18a.68.68,0,0,0,.62,0l7.43-4.28A.64.64,0,0,0,17.62,12.6Z"/><path class="cls-4" d="M73.25,36.5H69l-3.44-6-3.49,6H57.84l5.43-9.15L58.17,19h4.21l3.11,5.37L68.65,19h4.16l-5,8.42Z"/><path class="cls-4" d="M85.45,36.5l-3.38-6H79.63v6H75.86V19h7a6.39,6.39,0,0,1,3.1.72,5.12,5.12,0,0,1,2.17,2,6,6,0,0,1,.77,3,5.51,5.51,0,0,1-.83,3,5.62,5.62,0,0,1-2.33,2.05l3.88,6.6H85.45Zm-5.82-14V27h3a2.67,2.67,0,0,0,1.83-.61,2.11,2.11,0,0,0,.67-1.61,2.52,2.52,0,0,0-.28-1.16,1.81,1.81,0,0,0-.89-.78,3.46,3.46,0,0,0-1.33-.28h-3Z"/><path class="cls-4" d="M99.53,19A6.08,6.08,0,0,1,104,20.76,5.77,5.77,0,0,1,105.74,25,5.7,5.7,0,0,1,104,29.29,6,6,0,0,1,99.53,31H96.59V36.5H92.82V19Zm-.16,8.48a2.39,2.39,0,0,0,1.83-.72,2.29,2.29,0,0,0,.66-1.78,2.67,2.67,0,0,0-.66-1.83,2.35,2.35,0,0,0-1.83-.72H96.59v5h2.78Z"/><path class="cls-4" d="M112.62,33h6.71v3.5H108.85V19h3.77Z"/><path class="cls-4" d="M128.31,19a8.49,8.49,0,0,1,8.87,8.7,8.53,8.53,0,0,1-8.87,8.76h-5.38V19Zm7.6,8.7a7.3,7.3,0,0,0-7.6-7.54h-4V35.28h4A7.33,7.33,0,0,0,135.91,27.74Z"/><path class="cls-4" d="M154.15,23V36.5h-1.06l-.16-2.94a6.7,6.7,0,0,1-5.88,3.22,6.81,6.81,0,0,1-6.93-7,6.8,6.8,0,0,1,6.93-7A6.59,6.59,0,0,1,152.93,26l.16-2.94h1.06Zm-1.28,6.71a5.56,5.56,0,0,0-5.71-5.82,5.67,5.67,0,0,0-5.77,5.82,5.64,5.64,0,0,0,5.77,5.82A5.56,5.56,0,0,0,152.87,29.74Z"/><path class="cls-4" d="M158.14,32.68h1.22c.17,1.88,1.72,2.93,4,2.93s3.93-1,3.93-2.77c0-2.1-2.05-2.49-4.1-2.83-2.33-.38-4.77-.83-4.77-3.6,0-2.22,1.94-3.71,4.88-3.71s4.77,1.49,4.88,3.88h-1.16c-.12-1.78-1.5-2.78-3.77-2.78s-3.66,1-3.66,2.56c0,1.82,1.83,2.1,3.88,2.49,2.33.39,5,.83,5,3.94,0,2.38-2.05,3.93-5.15,3.93S158.31,35.17,158.14,32.68Z"/><path class="cls-4" d="M184,28.46v8h-1.22V28.68c0-3.05-1.61-4.88-4.32-4.88a4.88,4.88,0,0,0-4.77,4.94v7.71H172.5V18.2h1.22v7.38a5.82,5.82,0,0,1,5-2.88C182,22.75,184,25,184,28.46Z"/></g></g></svg>