<?xml version="1.0" encoding="utf-8"?>
<!-- Generator: Adobe Illustrator 24.2.0, SVG Export Plug-In . SVG Version: 6.00 Build 0)  -->
<svg version="1.1" id="Layer_1" xmlns="http://www.w3.org/2000/svg" xmlns:xlink="http://www.w3.org/1999/xlink" x="0px" y="0px"
	 viewBox="0 0 184 54" style="enable-background:new 0 0 184 54;" xml:space="preserve">
<style type="text/css">
	.st0{fill:#97509F;}
	.st1{fill:#85A8D8;}
	.st2{fill:#F280A3;}
</style>
<g id="Layer_2_1_">
	<g id="Layer_1-2">
		<path class="st0" d="M40.5,29.2l7.5-4.3c0.2-0.1,0.3-0.3,0.3-0.5v-8.6c0-0.3-0.3-0.6-0.6-0.6c-0.1,0-0.2,0-0.3,0.1l-7.5,4.3
			c-0.2,0.1-0.3,0.3-0.3,0.5v8.6c0,0.3,0.3,0.6,0.6,0.6C40.3,29.2,40.4,29.2,40.5,29.2z"/>
		<path class="st0" d="M33.1,39.9l-7.4,4.3c-0.2,0.1-0.3,0.3-0.3,0.5v8.6c0,0.3,0.3,0.6,0.6,0.6c0.1,0,0.2,0,0.3-0.1l7.4-4.3
			c0.2-0.1,0.3-0.3,0.3-0.5v-8.6c0-0.3-0.3-0.6-0.6-0.6C33.3,39.9,33.2,39.9,33.1,39.9z"/>
		<path class="st0" d="M47.4,31.8l-4.8,2.8l-8.7-4.9V24c0-0.3-0.3-0.6-0.6-0.6c-0.1,0-0.2,0-0.3,0.1l-4.9,2.8l0,0l-2.5,1.5
			c-0.2,0.1-0.3,0.3-0.3,0.5v3l0,0v5.6c0,0.3,0.3,0.6,0.6,0.6c0.1,0,0.2,0,0.3-0.1l4.9-2.8l8.6,4.9v5.7c0,0.3,0.3,0.6,0.6,0.6
			c0.1,0,0.2,0,0.3-0.1l7.4-4.3c0.2-0.1,0.3-0.3,0.3-0.5v-8.6c0-0.4-0.3-0.6-0.7-0.6C47.5,31.7,47.4,31.7,47.4,31.8z"/>
		<path class="st1" d="M22.6,44.2L15.2,40c-0.3-0.2-0.7-0.1-0.8,0.2c-0.1,0.1-0.1,0.2-0.1,0.3v8.6c0,0.2,0.1,0.4,0.3,0.5l7.4,4.3
			c0.3,0.2,0.7,0.1,0.8-0.2c0.1-0.1,0.1-0.2,0.1-0.3v-8.6C22.9,44.6,22.8,44.4,22.6,44.2z"/>
		<path class="st1" d="M0.3,24.9l7.4,4.3c0.3,0.2,0.7,0.1,0.8-0.2c0.1-0.1,0.1-0.2,0.1-0.3V20c0-0.2-0.1-0.4-0.3-0.5l-7.4-4.2
			c-0.3-0.2-0.7-0.1-0.8,0.2C0,15.6,0,15.7,0,15.8v8.6C0,24.6,0.1,24.8,0.3,24.9z"/>
		<path class="st1" d="M17,34.6l4.8,2.8c0.3,0.2,0.7,0.1,0.8-0.2c0.1-0.1,0.1-0.2,0.1-0.3v-5.7l0,0v-2.9c0-0.2-0.1-0.4-0.3-0.5
			L15,23.5c-0.3-0.2-0.7-0.1-0.8,0.2c-0.1,0.1-0.1,0.2-0.1,0.3v5.7l-8.3,4.9l-4.9-2.8c-0.3-0.2-0.7-0.1-0.8,0.2
			C0,32.1,0,32.2,0,32.3v8.6c0,0.2,0.1,0.4,0.3,0.5l7.4,4.3c0.3,0.2,0.7,0.1,0.8-0.2c0.1-0.1,0.1-0.2,0.1-0.3v-5.5L17,34.6z"/>
		<path class="st2" d="M31.7,20.8L26.9,18V8.3l5-2.9c0.3-0.2,0.4-0.5,0.2-0.8c-0.1-0.1-0.1-0.2-0.2-0.2l-7.4-4.3
			C24.3,0,24,0,23.8,0.1l-7.4,4.3c-0.3,0.2-0.4,0.5-0.2,0.8c0.1,0.1,0.1,0.2,0.2,0.2l4.8,2.8V18l-4.9,2.9c-0.3,0.2-0.4,0.5-0.2,0.8
			c0.1,0.1,0.1,0.2,0.2,0.2l7.4,4.3c0.2,0.1,0.4,0.1,0.6,0l7.4-4.3c0.3-0.2,0.4-0.6,0.2-0.9C31.9,20.9,31.8,20.9,31.7,20.8z"/>
		<path class="st2" d="M46.1,12.6l-7.4-4.3c-0.2-0.1-0.4-0.1-0.6,0l-7.4,4.3c-0.3,0.2-0.4,0.5-0.2,0.8c0.1,0.1,0.1,0.2,0.2,0.2
			l7.4,4.3c0.2,0.1,0.4,0.1,0.6,0l7.4-4.3c0.3-0.2,0.4-0.6,0.3-0.9C46.3,12.7,46.2,12.7,46.1,12.6z"/>
		<path class="st2" d="M17.6,12.6l-7.4-4.3c-0.2-0.1-0.4-0.1-0.6,0l-7.4,4.3c-0.3,0.2-0.4,0.5-0.2,0.8C2,13.5,2,13.6,2.1,13.7
			L9.6,18c0.2,0.1,0.4,0.1,0.6,0l7.4-4.3c0.3-0.2,0.4-0.6,0.2-0.9C17.8,12.7,17.7,12.7,17.6,12.6z"/>
		<path d="M73.2,36.5H69l-3.4-6l-3.5,6h-4.2l5.4-9.1L58.2,19h4.2l3.1,5.4l3.2-5.4h4.2l-5,8.4L73.2,36.5z"/>
		<path d="M85.4,36.5l-3.4-6h-2.4v6h-3.8V19h7c1.1,0,2.1,0.2,3.1,0.7c0.9,0.4,1.7,1.1,2.2,2c0.5,0.9,0.8,1.9,0.8,3
			c0,1.1-0.3,2.1-0.8,3c-0.6,0.9-1.4,1.6-2.3,2l3.9,6.6h-4.2V36.5z M79.6,22.5V27h3c0.7,0,1.3-0.2,1.8-0.6c0.4-0.4,0.7-1,0.7-1.6
			c0-0.4-0.1-0.8-0.3-1.2c-0.2-0.4-0.5-0.6-0.9-0.8c-0.4-0.2-0.9-0.3-1.3-0.3L79.6,22.5L79.6,22.5z"/>
		<path d="M99.5,19c1.7-0.1,3.3,0.6,4.5,1.8c1.1,1.1,1.8,2.6,1.7,4.2c0.1,1.6-0.6,3.2-1.7,4.3c-1.2,1.2-2.8,1.8-4.5,1.7h-2.9v5.5
			h-3.8V19H99.5z M99.4,27.5c0.7,0,1.4-0.2,1.8-0.7c0.5-0.5,0.7-1.1,0.7-1.8c0-0.7-0.2-1.3-0.7-1.8c-0.5-0.5-1.1-0.8-1.8-0.7h-2.8v5
			L99.4,27.5L99.4,27.5z"/>
		<path d="M112.6,33h6.7v3.5h-10.5V19h3.8L112.6,33z"/>
		<path d="M128.3,19c4.7-0.2,8.7,3.4,8.9,8.1c0,0.2,0,0.4,0,0.6c0.1,4.7-3.6,8.6-8.3,8.8c-0.2,0-0.4,0-0.6,0h-5.4V19H128.3z
			 M135.9,27.7c0.1-4-3-7.4-7-7.5c-0.2,0-0.4,0-0.6,0h-4v15.1h4c4,0.2,7.4-3,7.6-7.1C135.9,28.1,135.9,27.9,135.9,27.7L135.9,27.7z"
			/>
		<path d="M154.1,23v13.5h-1.1l-0.2-2.9c-1.2,2-3.5,3.3-5.9,3.2c-3.8,0.1-6.9-2.9-6.9-6.7c0-0.1,0-0.2,0-0.3c-0.1-3.8,2.8-6.9,6.6-7
			c0.1,0,0.2,0,0.3,0c2.4-0.1,4.7,1.2,5.9,3.2l0.2-2.9L154.1,23L154.1,23z M152.9,29.7c0.1-3.1-2.2-5.7-5.3-5.8c-0.1,0-0.3,0-0.4,0
			c-3.1-0.1-5.7,2.4-5.8,5.6c0,0.1,0,0.2,0,0.3c-0.1,3.1,2.3,5.7,5.5,5.8c0.1,0,0.2,0,0.3,0c3.1,0.1,5.6-2.3,5.7-5.4
			C152.9,30,152.9,29.9,152.9,29.7L152.9,29.7z"/>
		<path d="M158.1,32.7h1.2c0.2,1.9,1.7,2.9,4,2.9s3.9-1,3.9-2.8c0-2.1-2.1-2.5-4.1-2.8c-2.3-0.4-4.8-0.8-4.8-3.6
			c0-2.2,1.9-3.7,4.9-3.7s4.8,1.5,4.9,3.9H167c-0.1-1.8-1.5-2.8-3.8-2.8s-3.7,1-3.7,2.6c0,1.8,1.8,2.1,3.9,2.5c2.3,0.4,5,0.8,5,3.9
			c0,2.4-2.1,3.9-5.1,3.9S158.3,35.2,158.1,32.7z"/>
		<path d="M184,28.5v8h-1.2v-7.8c0-3-1.6-4.9-4.3-4.9c-2.7,0.1-4.8,2.3-4.8,4.9v7.7h-1.2V18.2h1.2v7.4c1-1.8,2.9-2.9,5-2.9
			C182,22.8,184,25,184,28.5z"/>
	</g>
</g>
</svg>
