<svg id="Layer_1" data-name="Layer 1" xmlns="http://www.w3.org/2000/svg" viewBox="0 0 148.54 22.67"><defs><style>.cls-1{fill:#fff;}.cls-2{fill:#3051fc;fill-rule:evenodd;}</style></defs><path class="cls-1" d="M35.63,22.39c-2.78,0-6.25-.78-8.1-2.88a11.47,11.47,0,0,1-2.73-7.73V4.55c0-.66,0-1.15,0-1.45A4.49,4.49,0,0,1,25.22,2C25.6,1.28,26.68.91,28.44.91c1.93,0,3.06.52,3.39,1.57a6.35,6.35,0,0,1,.25,2.11v7.23a3.61,3.61,0,0,0,1,2.65,3.62,3.62,0,0,0,2.6.95,3.58,3.58,0,0,0,2.65-1,3.44,3.44,0,0,0,1-2.61V4.51c0-.64,0-1.11,0-1.41A4,4,0,0,1,39.77,2C40.13,1.27,41.19.91,43,.91s2.8.37,3.18,1.12a3,3,0,0,1,.33,1.11,7.92,7.92,0,0,1,.09,1.41v7.27a10.57,10.57,0,0,1-2.93,7.69C41.72,21.41,38.18,22.31,35.63,22.39Z" transform="translate(0 -0.32)"/><path class="cls-1" d="M16.12,11.82l4.59,4.63A4.09,4.09,0,0,1,22.2,19a4.09,4.09,0,0,1-1.49,2.52A4.09,4.09,0,0,1,18.19,23a4,4,0,0,1-2.52-1.48l-4.55-4.59L6.53,21.5A4,4,0,0,1,4,23a4.24,4.24,0,0,1-2.52-1.44A4.09,4.09,0,0,1,0,19a4.09,4.09,0,0,1,1.49-2.57l4.59-4.63L1.49,7.19A4.07,4.07,0,0,1,0,4.67,4.07,4.07,0,0,1,1.49,2.11,4.22,4.22,0,0,1,4,.62,4.07,4.07,0,0,1,6.53,2.11l4.59,4.63,4.55-4.63A4.07,4.07,0,0,1,18.19.62a4.07,4.07,0,0,1,2.52,1.49A4.07,4.07,0,0,1,22.2,4.67a4.07,4.07,0,0,1-1.49,2.52Z" transform="translate(0 -0.32)"/><path class="cls-1" d="M59.14.86a9,9,0,0,1,7.07,2.93,11.47,11.47,0,0,1,2.73,7.73v7.23c0,.67,0,1.15,0,1.45a5.13,5.13,0,0,1-.37,1.08c-.39.74-1.46,1.11-3.23,1.11-1.93,0-3.06-.52-3.39-1.57a6.63,6.63,0,0,1-.25-2.11V11.48a3.57,3.57,0,0,0-.95-2.65,2.23,2.23,0,0,0-1.57-.6,2.27,2.27,0,0,0-1.61.64,3.46,3.46,0,0,0-1,2.61V18.8c0,.63,0,1.1,0,1.4A3.68,3.68,0,0,1,56,21.32c-.36.71-1.42,1.07-3.18,1.07s-2.8-.37-3.18-1.11a3.35,3.35,0,0,1-.34-1.12,9.32,9.32,0,0,1-.08-1.41V11.48a10.57,10.57,0,0,1,2.93-7.69A9.47,9.47,0,0,1,59.14.86Z" transform="translate(0 -0.32)"/><path class="cls-1" d="M71.54.86a8.93,8.93,0,0,1,7.07,2.93,11.47,11.47,0,0,1,2.73,7.73v7.23c0,.67,0,1.15,0,1.45a5.13,5.13,0,0,1-.37,1.08c-.39.74-1.46,1.11-3.23,1.11-1.93,0-3.06-.52-3.39-1.57a6.63,6.63,0,0,1-.25-2.11V11.48a3.57,3.57,0,0,0-1-2.65,2.23,2.23,0,0,0-1.57-.6,2.27,2.27,0,0,0-1.61.64,3.46,3.46,0,0,0-1,2.61V18.8c0,.63,0,1.1,0,1.4a4,4,0,0,1-.42,1.12c-.36.71-1.42,1.07-3.18,1.07s-2.8-.37-3.18-1.11a3.09,3.09,0,0,1-.33-1.12,7.92,7.92,0,0,1-.09-1.41V11.48a10.57,10.57,0,0,1,2.93-7.69A9.47,9.47,0,0,1,71.54.86Z" transform="translate(0 -0.32)"/><path class="cls-1" d="M93.59.86a9,9,0,0,1,7.07,2.93,11.47,11.47,0,0,1,2.73,7.73v7.23c0,.67,0,1.15,0,1.45a4.7,4.7,0,0,1-.38,1.08c-.38.74-1.46,1.11-3.22,1.11-1.93,0-3.06-.52-3.39-1.57a6.35,6.35,0,0,1-.25-2.11V11.48a3.57,3.57,0,0,0-1-2.65,2.23,2.23,0,0,0-1.57-.6A2.27,2.27,0,0,0,92,8.87a3.46,3.46,0,0,0-1,2.61V18.8c0,.63,0,1.1,0,1.4a3.68,3.68,0,0,1-.41,1.12c-.36.71-1.42,1.07-3.18,1.07s-2.8-.37-3.19-1.11a3.55,3.55,0,0,1-.33-1.12,9.32,9.32,0,0,1-.08-1.41V11.48a10.57,10.57,0,0,1,2.93-7.69A9.47,9.47,0,0,1,93.59.86Z" transform="translate(0 -0.32)"/><path class="cls-1" d="M106,.86a9,9,0,0,1,7.07,2.93,11.47,11.47,0,0,1,2.73,7.73v7.23c0,.67,0,1.15,0,1.45a5.13,5.13,0,0,1-.37,1.08c-.39.74-1.46,1.11-3.23,1.11-1.93,0-3.06-.52-3.39-1.57a6.63,6.63,0,0,1-.25-2.11V11.48a3.57,3.57,0,0,0-1-2.65,2.23,2.23,0,0,0-1.57-.6,2.27,2.27,0,0,0-1.61.64,3.46,3.46,0,0,0-1,2.61V18.8c0,.63,0,1.1,0,1.4a4,4,0,0,1-.42,1.12c-.36.71-1.42,1.07-3.18,1.07s-2.8-.37-3.18-1.11a3.35,3.35,0,0,1-.34-1.12,9.32,9.32,0,0,1-.08-1.41V11.48A10.57,10.57,0,0,1,99,3.79,9.47,9.47,0,0,1,106,.86Z" transform="translate(0 -0.32)"/><path class="cls-2" d="M147.29,1.31a3.83,3.83,0,0,1,.26,5.4L134.6,21A3.81,3.81,0,0,1,129,21l-7-7.3a3.82,3.82,0,0,1,5.54-5.27l4.12,4.32L141.89,1.57A3.83,3.83,0,0,1,147.29,1.31Z" transform="translate(0 -0.32)"/></svg>